<svg width="33" height="20" viewBox="0 0 33 20" fill="none" xmlns="http://www.w3.org/2000/svg">
<path d="M11.1338 0C11.965 1.85833e-05 12.811 0.0894803 13.6719 0.267578C13.8203 1.15828 13.8945 1.87085 13.8945 2.40527C13.8945 2.99905 13.8061 3.71169 13.6279 4.54297H12.2021C10.5991 4.54299 9.30784 4.70668 8.32812 5.0332C7.34837 5.35979 6.56158 6.10191 5.96777 7.25977C5.40365 8.06141 5.12109 9.26389 5.12109 10.8672C5.12109 11.3422 5.13633 11.7133 5.16602 11.9805C5.2254 13.1681 6.08635 14.029 7.74902 14.5635C9.41171 15.0979 12.1136 15.3357 15.8545 15.2764L18.126 15.3203C19.6695 15.3797 20.7382 15.4101 21.332 15.4102C23.2617 15.4102 24.7612 15.217 25.8301 14.8311C26.8989 14.4451 27.6562 13.6877 28.1016 12.5596C28.2797 11.7579 28.3691 11.0301 28.3691 10.377C28.3691 8.32867 27.6267 6.81472 26.1426 5.83496C24.658 4.85517 22.5194 4.37949 19.7285 4.40918C19.7582 4.08266 19.7734 3.78572 19.7734 3.51855C19.7438 3.22177 19.7285 2.96949 19.7285 2.76172C19.6988 2.49455 19.6846 2.12337 19.6846 1.64844C19.6846 1.08432 19.7141 0.682838 19.7734 0.445312C20.7829 0.178106 21.778 0.0449219 22.7578 0.0449219C24.539 0.0449813 26.2014 0.431272 27.7451 1.20312C29.2592 1.97503 30.4771 3.07303 31.3975 4.49805C32.3178 5.89346 32.8078 7.4823 32.8672 9.26367C32.9563 9.82779 33.001 10.4072 33.001 11.001C33.0009 13.1386 32.4958 15.0243 31.4863 16.6572C30.4768 18.2603 28.9622 19.1652 26.9434 19.373C23.9744 19.5215 20.7977 19.5957 17.4131 19.5957C15.8396 19.5957 14.6075 19.5814 13.7168 19.5518L8.32812 19.5068C6.48737 19.5068 4.85383 19.0473 3.42871 18.127C1.97398 17.1769 1.02352 15.9 0.578125 14.2969C0.192147 13.1389 0 11.9507 0 10.7334C2.11099e-05 8.7739 0.504245 6.97765 1.51367 5.34473C2.49346 3.71174 3.84435 2.41983 5.56641 1.46973C7.25876 0.489953 9.11484 0 11.1338 0Z" fill="black"/>
</svg>
